<?xml version="1.0" standalone="no"?>
<!DOCTYPE svg PUBLIC "-//W3C//DTD SVG 20010904//EN"
 "http://www.w3.org/TR/2001/REC-SVG-20010904/DTD/svg10.dtd">
<svg version="1.0" xmlns="http://www.w3.org/2000/svg"
 width="408.000000pt" height="612.000000pt" viewBox="0 0 408.000000 612.000000"
 preserveAspectRatio="xMidYMid meet">
<metadata>
Created by potrace 1.16, written by Peter Selinger 2001-2019
</metadata>
<g transform="translate(0.000000,612.000000) scale(0.100000,-0.100000)"
fill="#000000" stroke="none">
<path d="M2060 2921 c-19 -4 -46 -11 -59 -15 -18 -6 -22 -5 -16 4 5 9 4 11 -4
6 -6 -4 -8 -12 -5 -18 5 -7 1 -9 -9 -5 -15 6 -41 -16 -43 -37 0 -6 -2 -19 -2
-29 -1 -10 -6 -16 -11 -13 -10 6 -19 -39 -13 -66 4 -23 22 -23 22 -1 0 15 2
15 14 -2 12 -16 16 -17 30 -6 9 7 16 10 16 6 0 -10 -60 -65 -72 -65 -6 0 -8
-7 -4 -15 3 -8 1 -15 -4 -15 -6 0 -10 -7 -10 -16 0 -9 -5 -12 -12 -8 -8 5 -9
2 -5 -9 6 -16 4 -16 -18 -1 -19 13 -28 13 -46 3 -16 -8 -24 -9 -27 -1 -2 6
-10 8 -18 5 -8 -3 -26 5 -40 17 -13 13 -24 18 -24 12 0 -7 4 -12 9 -12 5 0 11
-7 15 -15 8 -22 -11 -18 -35 6 l-21 21 7 -30 c5 -25 3 -31 -15 -37 -11 -3 -18
-10 -15 -14 2 -5 -16 -16 -41 -26 -35 -13 -48 -15 -57 -5 -9 9 -9 11 2 8 7 -2
32 24 55 57 39 56 47 62 149 108 93 42 110 47 124 35 14 -11 16 -11 8 2 -6 8
-10 18 -10 22 0 3 -4 10 -9 15 -5 5 -6 2 -1 -6 6 -11 3 -13 -13 -9 -12 4 -20
3 -17 -2 2 -4 -28 -22 -68 -40 -101 -45 -102 -46 -92 -30 5 9 4 11 -4 6 -6 -4
-8 -12 -5 -18 5 -7 2 -9 -8 -5 -10 3 -27 -6 -44 -25 -16 -17 -23 -28 -15 -23
9 5 12 3 9 -6 -3 -8 -10 -14 -15 -14 -6 0 -15 -4 -20 -9 -5 -5 -2 -6 6 -1 9 5
12 3 9 -6 -3 -8 -10 -13 -16 -12 -7 2 -9 -4 -5 -14 4 -10 2 -14 -4 -10 -6 4
-19 -3 -29 -15 -13 -15 -14 -19 -4 -14 8 4 7 1 -3 -8 -15 -11 -16 -19 -8 -33
9 -15 10 -15 11 -2 0 12 15 18 61 23 88 9 162 7 179 -4 11 -7 4 -9 -22 -5 -35
4 -43 -1 -40 -26 1 -4 -8 -5 -19 -2 -15 4 -34 -9 -76 -52 -49 -51 -55 -54 -49
-29 4 15 16 45 26 66 18 38 18 38 -3 38 -27 0 -52 -47 -36 -66 7 -8 6 -14 -2
-20 -8 -4 -9 -3 -5 4 4 7 2 12 -3 12 -6 0 -11 10 -12 23 -1 21 -1 21 -9 -3
-11 -33 -11 -132 -1 -105 6 15 9 7 14 -30 4 -28 16 -65 27 -83 11 -18 20 -37
20 -42 0 -6 -28 -44 -62 -86 -51 -64 -63 -73 -71 -59 -5 9 -7 31 -4 48 3 18 3
26 0 19 -2 -6 -8 -10 -13 -7 -4 3 -4 -11 0 -30 4 -19 4 -35 -1 -37 -4 -2 -11
-38 -15 -81 -5 -59 -3 -91 9 -130 9 -29 22 -79 28 -111 7 -32 22 -67 33 -77
24 -23 25 -107 1 -125 -8 -6 -15 -18 -15 -26 0 -25 24 -68 43 -74 13 -4 17
-17 17 -59 0 -30 4 -56 9 -59 4 -3 11 -33 15 -66 4 -33 10 -60 14 -60 4 0 8
-14 9 -32 1 -17 7 -36 13 -42 5 -5 10 -29 10 -53 0 -49 23 -83 57 -83 12 0 25
-5 28 -10 3 -6 22 -10 41 -10 25 0 34 -4 35 -17 11 -135 13 -152 19 -148 8 5
29 -22 22 -29 -3 -4 2 -4 12 0 13 5 17 4 13 -3 -5 -7 1 -9 15 -6 19 4 20 3 8
-6 -13 -9 -13 -11 3 -11 9 0 20 0 24 1 3 0 10 -6 15 -15 19 -34 149 -8 187 37
7 10 21 17 31 17 13 0 19 10 22 39 2 22 0 37 -3 35 -4 -2 -9 5 -12 16 -4 14
-10 18 -23 13 -12 -4 -15 -3 -10 5 5 8 1 10 -11 5 -10 -3 -15 -3 -11 1 4 5 -3
26 -14 47 -16 32 -18 42 -8 54 7 8 9 15 6 15 -4 0 -1 6 6 14 7 8 17 12 21 9 5
-3 7 5 5 18 -2 16 -11 25 -26 27 -16 3 -22 8 -18 19 4 9 -1 17 -13 20 -21 5
-22 15 -23 160 0 80 3 97 23 125 12 18 23 34 25 36 1 2 18 -5 38 -14 39 -19
41 -23 51 -154 3 -44 12 -85 22 -100 10 -14 29 -50 44 -80 14 -30 33 -61 41
-68 9 -7 22 -26 28 -43 8 -19 16 -26 20 -19 4 7 7 -8 6 -33 0 -25 -4 -43 -8
-41 -4 3 -5 -3 -1 -12 4 -11 2 -15 -4 -11 -6 4 -17 -1 -24 -10 -12 -14 -12
-16 0 -9 10 7 12 4 7 -12 -4 -12 -1 -32 6 -44 7 -13 11 -27 10 -31 -1 -5 2 -6
8 -2 5 3 10 1 10 -5 0 -6 12 -23 27 -38 15 -15 20 -18 12 -8 -13 18 -13 19 9
7 12 -7 20 -16 17 -20 -2 -5 3 -15 12 -22 14 -12 16 -12 8 0 -5 9 -4 12 3 7 6
-4 9 -12 6 -19 -7 -20 35 -67 72 -83 39 -16 94 -18 94 -4 0 6 9 10 21 10 13 0
18 4 13 12 -5 8 -2 9 10 5 10 -4 15 -3 11 3 -3 6 -1 10 6 10 7 0 9 9 5 28 -4
15 -8 35 -9 44 -1 9 -4 15 -8 12 -10 -6 -32 23 -25 34 3 5 -1 9 -10 9 -12 0
-12 -3 1 -21 30 -42 46 -78 41 -92 -6 -17 -87 -19 -117 -4 -24 13 -25 57 -2
82 16 18 16 19 -5 25 -12 3 -21 10 -20 17 1 6 -2 21 -6 34 -6 18 -2 28 19 48
15 14 28 24 29 22 1 -2 10 -16 19 -31 10 -15 15 -31 13 -36 -3 -5 2 -15 11
-22 12 -10 14 -10 9 -1 -4 6 -2 12 3 12 6 0 11 8 11 18 0 14 -2 15 -10 2 -8
-13 -10 -12 -11 5 -1 11 -1 25 0 32 1 6 -3 14 -9 18 -6 4 -7 -1 -4 -12 5 -14
4 -15 -4 -4 -7 10 -7 23 0 40 6 14 10 65 10 114 0 95 -30 246 -44 225 -5 -8
-6 -3 -3 12 3 14 -1 45 -10 70 -9 27 -13 33 -10 15 7 -38 -9 -13 -19 30 -5 22
-4 26 4 15 11 -17 14 -1 4 25 -5 13 -9 14 -15 3 -6 -8 -7 -1 -3 18 4 20 0 43
-10 62 -9 17 -16 42 -16 56 0 14 -4 28 -10 31 -5 3 -10 19 -10 36 0 16 -4 29
-10 29 -15 0 -50 41 -67 80 -9 19 -29 49 -44 65 -30 32 -62 99 -52 109 3 3 7
25 8 48 3 49 38 219 54 261 6 16 11 40 11 55 0 15 9 51 21 81 11 30 18 66 16
80 -4 24 -4 24 -6 -4 -1 -16 -6 -37 -11 -45 -13 -19 -1 67 12 94 7 13 7 16 -1
12 -6 -4 -12 -2 -12 3 -1 6 -2 17 -3 24 0 6 -8 12 -16 12 -8 0 -15 5 -15 10 0
20 -16 34 -32 28 -12 -5 -14 -3 -8 7 5 9 4 11 -3 6 -6 -4 -22 4 -34 16 -13 13
-26 22 -30 21 -5 -2 -8 0 -9 5 0 4 -2 22 -4 41 -2 20 4 46 15 64 10 16 16 36
13 44 -4 9 -8 11 -12 4 -4 -6 -5 19 -3 55 3 36 1 70 -4 74 -5 5 -7 -16 -6 -48
2 -31 2 -55 -1 -52 -3 3 -6 32 -8 65 -2 47 -8 66 -27 87 -15 16 -30 24 -40 21
-10 -4 -13 -2 -8 5 4 7 6 11 4 11 -2 -1 -19 -5 -38 -8z m100 -381 c0 -5 9 -10
20 -10 11 0 20 -4 20 -10 0 -5 7 -10 15 -10 8 0 15 -4 15 -10 0 -5 5 -9 12 -7
7 1 13 -8 14 -21 1 -13 7 -29 14 -35 10 -10 12 -7 7 11 -7 30 10 24 30 -9 15
-25 14 -30 -7 -82 -15 -36 -28 -53 -36 -50 -11 4 -10 10 3 29 23 35 2 29 -40
-11 -36 -35 -52 -30 -40 14 3 12 1 21 -6 21 -7 0 -9 9 -5 24 4 17 0 28 -16 39
l-22 15 21 7 c29 9 26 28 -4 23 -22 -5 -23 -3 -13 16 10 19 10 20 -5 7 -20
-16 -22 -5 -4 32 12 27 27 36 27 17z m-155 -1550 c-18 -19 -17 -21 6 -66 25
-49 60 -80 82 -71 8 3 14 0 14 -6 0 -7 3 -19 7 -27 4 -11 -3 -18 -26 -27 -18
-6 -53 -19 -78 -29 -44 -17 -47 -17 -73 1 -19 12 -26 23 -22 36 4 11 2 19 -3
19 -10 0 -23 31 -26 60 0 8 -9 14 -18 12 -31 -5 -19 24 17 41 19 9 35 21 35
27 0 5 13 10 30 10 19 0 35 8 47 24 10 13 20 22 22 20 2 -2 -4 -13 -14 -24z"/>
</g>
</svg>
